<!-- icon666.com - MILLIONS vector ICONS FREE --><svg id="Layer_1" enable-background="new 0 0 100 100" viewBox="0 0 100 100" xmlns="http://www.w3.org/2000/svg"><circle cx="30" cy="25" r="11.667"></circle><circle cx="70" cy="48.333" r="11.667"></circle><path d="m84.388 69.831c-.579-1.742-2.555-3.164-4.388-3.164h-20c-1.208 0-2.441.647-3.333 1.568v-11.568h-8.887l-3.392-10.17c-.581-1.741-2.556-3.164-4.388-3.164h-20c-1.833 0-3.807 1.423-4.388 3.164l-5.612 16.836h7.028l4.443-13.333h17.058l2.222 6.667h-14.084v16.666h-10v6.667h35.553l-2.22 6.667h7.028l4.443-13.334h17.057l4.443 13.334h7.029z"></path></svg>